<?xml version="1.0" encoding="UTF-8"?>
<svg id="katman_1" data-name="katman 1" xmlns="http://www.w3.org/2000/svg" viewBox="0 0 626.57 157.11">
  <defs>
    <style>
      .cls-1 {
        fill: #312e82;
      }

      .cls-1, .cls-2, .cls-3, .cls-4 {
        stroke-width: 0px;
      }

      .cls-2 {
        fill: #6cbe9f;
      }

      .cls-3 {
        fill: #38b1e6;
      }

      .cls-4 {
        fill: #66b76a;
      }
    </style>
  </defs>
  <g>
    <path class="cls-1" d="m24.95,118.56l36.38,17.9c5.65,2.78,12.26-1.33,12.26-7.63v-49.88c0-3.24-1.84-6.2-4.75-7.63l-36.38-17.91c-5.65-2.78-12.26,1.33-12.26,7.63v49.89c0,3.24,1.84,6.2,4.75,7.63Z"/>
    <path class="cls-3" d="m76.69,13.13l-38.83,18.54c-4.79,2.44-5.36,8.78-1.51,12.56.59.58,1.31,1.02,2.05,1.38l35.3,16.9c2.59,1.83,5.93,2.13,8.62.76l38.11-18.13c4.81-2.45,5.36-8.83,1.47-12.6-.56-.54-1.23-.97-1.93-1.32l-34.67-17.33c-2.59-1.83-5.93-2.13-8.62-.76Z"/>
    <path class="cls-2" d="m132.46,118.66l-35.67,17.55c-5.89,2.9-12.77-1.39-12.77-7.95v-49.08c0-3.38,1.92-6.46,4.95-7.95l35.67-17.56c5.89-2.9,12.78,1.39,12.78,7.95v49.09c0,3.38-1.92,6.46-4.95,7.95Z"/>
    <path class="cls-4" d="m132.66,118.55l-36.38,17.9c-5.65,2.78-12.26-1.33-12.26-7.63v-49.88c0-3.24,1.84-6.2,4.75-7.63l36.38-17.91c5.65-2.78,12.26,1.33,12.26,7.63v49.89c0,3.24-1.84,6.2-4.75,7.63Z"/>
  </g>
  <g>
    <path class="cls-1" d="m375.55,43.22h-13.5l-27.67,72.4h12.68l6.58-18.14,15.02-41.47h.41l21.5,59.62h12.65l-27.67-72.4Z"/>
    <path class="cls-1" d="m234.54,43.23v10.14h-23.72v62.24h-11.86v-62.24h-23.72v-10.14h59.3Z"/>
    <path class="cls-1" d="m294.95,43.23c17.44,0,26.26,7.4,26.26,22.2s-8.82,22.4-26.46,22.4h-17.94v27.78h-11.86V43.23h30Zm-18.14,34.46h17.23c5.27,0,9.12-1.01,11.55-2.84,2.43-1.93,3.65-5.07,3.65-9.43s-1.32-7.4-3.75-9.22c-2.43-1.93-6.28-2.84-11.45-2.84h-17.23v24.33Z"/>
    <g>
      <path class="cls-3" d="m431.88,43.95h0c4.3-.01,7.79,3.47,7.79,7.77v12.76l1.12-.49,1.12-.49c3.51-1.27,7.09-1.9,10.76-1.9s7.31.63,10.81,1.9c3.41,1.27,6.48,3.13,9.2,5.6,2.69,2.43,4.79,5.28,6.28,8.52,1.53,3.28,2.29,6.8,2.29,10.57s-.75,7.4-2.24,10.62c-1.49,3.22-3.6,6.07-6.33,8.57-2.76,2.5-5.83,4.37-9.2,5.6-3.41,1.33-7.01,2-10.81,2-4.97,0-9.66-1.17-14.07-3.51-4.42-2.3-7.92-5.49-10.52-9.54-2.6-3.99-3.91-8.46-3.94-13.39v-36.82c0-4.28,3.46-7.75,7.74-7.77Zm11.69,53.2c2.56,2.5,5.6,3.75,9.11,3.75s6.59-1.25,9.16-3.75c2.6-2.5,3.9-5.49,3.9-8.96,0-2.27-.6-4.35-1.8-6.23-1.2-1.92-2.81-3.44-4.82-4.58-1.98-1.14-4.12-1.7-6.43-1.7s-4.37.57-6.38,1.7c-2.01,1.14-3.62,2.66-4.82,4.58-1.2,1.88-1.8,3.96-1.8,6.23,0,3.47,1.3,6.46,3.9,8.96Z"/>
      <path class="cls-3" d="m551.18,114.37l18.14-25.67-16.94-23.64,16.94-.1,8.97,13.7,9.6-13.7,16.65.05-17.85,23.88,18.82,25.33-18.38.1-9.41-14.28-10.18,14.28-16.36.05Z"/>
    </g>
    <path class="cls-3" d="m505.4,110.64c-4.06-2.15-7.29-5.09-9.68-8.82-2.42-3.76-3.63-7.97-3.63-12.63,0-3.49.7-6.75,2.1-9.76,1.4-3.02,3.33-5.63,5.78-7.84,2.48-2.24,5.3-3.95,8.46-5.15,3.23-1.19,6.52-1.79,9.9-1.79s6.72.6,9.94,1.79c3.14,1.13,5.96,2.84,8.47,5.1,2.48,2.27,4.4,4.9,5.78,7.88,1.4,3.02,2.11,6.27,2.11,9.76s-.69,6.81-2.06,9.76c-1.37,2.99-3.31,5.63-5.82,7.93-2.54,2.27-5.36,3.99-8.47,5.15-3.13,1.22-6.45,1.84-9.94,1.84-4.57,0-8.88-1.07-12.94-3.23Zm4.57-13.21c2.36,2.3,5.15,3.45,8.38,3.45s6.06-1.15,8.42-3.45c2.44-2.35,3.63-5.16,3.58-8.44-.03-1.84-.53-3.68-1.46-5.26-1.12-1.91-2.67-3.42-4.63-4.53-1.82-1.04-3.79-1.57-5.91-1.57s-4.02.52-5.87,1.57c-1.96,1.11-3.5,2.62-4.63,4.53-.93,1.58-1.43,3.42-1.46,5.26-.05,3.28,1.14,6.1,3.58,8.44Z"/>
  </g>
</svg>