<svg width="23" height="22" viewBox="0 0 23 22" fill="none" xmlns="http://www.w3.org/2000/svg">
<path fill-rule="evenodd" clip-rule="evenodd" d="M0.585786 18.2526C-0.195262 19.0336 -0.195262 20.3 0.585786 21.081C1.36684 21.8621 2.63316 21.8621 3.41421 21.081L11.0298 13.4654L18.8363 21.272C19.6174 22.053 20.8837 22.053 21.6647 21.272C22.4458 20.4909 22.4458 19.2246 21.6647 18.4436L13.8582 10.637L21.081 3.41421C21.8621 2.63316 21.8621 1.36684 21.081 0.585786C20.3 -0.195262 19.0336 -0.195262 18.2526 0.585786L11.0298 7.80859L3.99794 0.776757C3.21689 -0.00429195 1.95056 -0.00429195 1.16951 0.776757C0.388466 1.5578 0.388466 2.82414 1.16951 3.60518L8.20135 10.637L0.585786 18.2526Z" fill="black"/>
</svg>
