<svg xmlns="http://www.w3.org/2000/svg" version="1.1" id="Layer_1" x="0" y="0" style="enable-background:new 0 0 841.9 595.3" xml:space="preserve" viewBox="194.6 220.3 452.6 154.6"><style>.st0{fill:#fe5000}</style><path class="st0" d="M400.3 273.5c3.9 0 7.5.6 10.7 1.9 3.3 1.3 6.1 3.1 8.5 5.4 2.4 2.3 4.2 5.1 5.5 8.4 1.3 3.3 2 6.8 2 10.8v23.5h-11.2v-5.1c-2.3 2.1-4.9 3.7-7.7 4.7-2.9 1-5.8 1.4-8.6 1.4-3.6 0-7-.6-10.2-1.9-3.1-1.3-5.9-3-8.2-5.3-2.3-2.3-4.1-5-5.5-8.1-1.3-3.1-2-6.5-2-10.1 0-3.7.7-7.1 2-10.3 1.3-3.1 3.1-5.8 5.5-8.1s5.2-4.1 8.5-5.4c3.2-1.2 6.8-1.8 10.7-1.8zm-15.4 25.6c0 2.3.4 4.4 1.2 6.4.8 1.9 1.8 3.5 3.2 4.9s3 2.4 4.9 3.1c1.9.7 4 1.1 6.2 1.1 2.3 0 4.3-.4 6.2-1.1 1.9-.7 3.5-1.7 4.8-3.1s2.4-3 3.2-4.8c.8-1.9 1.2-4 1.2-6.3s-.4-4.5-1.2-6.4c-.8-1.9-1.9-3.6-3.2-4.9-1.4-1.3-3-2.4-4.9-3.1-1.9-.7-4-1.1-6.2-1.1s-4.3.4-6.1 1.1c-1.9.7-3.5 1.8-4.9 3.1-1.4 1.3-2.4 3-3.2 4.9-.9 1.8-1.2 3.9-1.2 6.2zm44.2-24.5h12.2l14.3 36.4h.1l14.3-36.4h12.3l-18 42.7c-1 2.4-2.1 4.1-3.4 5-1.3 1-3 1.4-5.2 1.4-2.1 0-3.9-.5-5.2-1.4-1.3-1-2.4-2.6-3.4-4.9l-18-42.8zm65.6 28.8c.7 3.5 2.5 6.3 5.3 8.2 2.8 1.9 6.3 2.9 10.4 2.9 2.7 0 5-.4 7-1.1 2-.7 3.8-2 5.5-3.8l7.1 6.4c-2.4 2.6-5.3 4.6-8.6 6.2-3.3 1.6-7.1 2.3-11.6 2.3-3.9 0-7.4-.6-10.7-1.9-3.3-1.3-6.1-3-8.4-5.3-2.4-2.3-4.2-5-5.5-8.1-1.3-3.1-2-6.5-2-10.2 0-3.7.6-7.1 1.9-10.2 1.3-3.1 3-5.7 5.3-8s5-4 8.1-5.3c3.2-1.3 6.7-1.9 10.6-1.9 3.5 0 6.7.6 9.6 1.7 2.9 1.2 5.4 2.8 7.4 4.8 2.1 2.1 3.7 4.5 4.8 7.3 1.2 2.8 1.7 5.9 1.7 9.2 0 1 0 2-.1 3s-.2 2.2-.4 3.7h-37.4zm14.3-19.9c-3.8 0-6.9 1-9.4 2.9s-4.1 4.5-4.8 7.8h27c-.7-3.6-2.1-6.3-4.3-8-2.3-1.8-5.1-2.7-8.5-2.7zm29.5 15.5c0-3.7.7-7.1 2-10.2 1.3-3.1 3.2-5.8 5.6-8.1 2.4-2.3 5.2-4 8.5-5.3 3.3-1.3 6.8-1.9 10.6-1.9 3.9 0 7.5.6 10.7 1.9 3.3 1.3 6.1 3 8.5 5.3 2.4 2.2 4.2 4.9 5.6 8 1.3 3.1 2 6.5 2 10.2 0 3.7-.7 7.1-2 10.3-1.3 3.1-3.2 5.8-5.6 8.1-2.4 2.3-5.2 4-8.5 5.3-3.3 1.3-6.9 1.9-10.7 1.9-3.9 0-7.4-.6-10.7-1.9-3.3-1.3-6.1-3.1-8.4-5.3-2.4-2.3-4.2-5-5.5-8.1-1.4-3.1-2.1-6.5-2.1-10.2zm11.2-.1c0 2.3.4 4.5 1.2 6.4.8 1.9 1.8 3.6 3.2 4.9 1.4 1.3 3 2.4 4.9 3.1 1.9.7 4 1.1 6.2 1.1 2.3 0 4.3-.4 6.2-1.1s3.5-1.8 4.8-3.1c1.3-1.3 2.4-3 3.2-4.9.8-1.9 1.2-4 1.2-6.4 0-2.3-.4-4.4-1.2-6.4-.8-1.9-1.9-3.5-3.2-4.9-1.4-1.3-3-2.4-4.9-3.1-1.9-.7-4-1.1-6.2-1.1s-4.3.4-6.1 1.1c-1.9.7-3.5 1.7-4.9 3.1-1.4 1.3-2.4 3-3.2 4.8-.8 2.1-1.2 4.2-1.2 6.5zm60.8 24.7h-11.1v-24.4c0-3.8.6-7.2 1.7-10.4 1.2-3.2 2.8-5.9 4.9-8.1 2.1-2.3 4.6-4 7.6-5.3 2.9-1.3 6.1-1.9 9.7-1.9s6.8.6 9.7 1.9c3 1.3 5.5 3 7.6 5.3 2.1 2.3 3.8 5 4.9 8.1 1.2 3.2 1.7 6.6 1.7 10.4v24.4h-11.1v-26c0-2.1-.3-4-.9-5.7-.6-1.7-1.5-3.2-2.6-4.4-1.1-1.2-2.5-2.2-4.1-2.9-1.6-.7-3.3-1-5.2-1-1.9 0-3.6.3-5.1 1-1.6.7-2.9 1.6-4.1 2.9-1.1 1.2-2 2.7-2.6 4.4-.6 1.7-.9 3.6-.9 5.7v26zM291.6 290c0 10.9-8.8 19.8-19.8 19.8S252 301 252 290s8.8-19.8 19.8-19.8 19.8 8.9 19.8 19.8zm-19.7-50.4c9.2 0 18.8 5.9 25.2 17.3 0 0 21.5 38.7 36.9 86.8 9.6-12.9 15.2-28.8 15.2-46.1 0-42.7-34.6-77.3-77.3-77.3s-77.3 34.6-77.3 77.3c0 17.3 5.7 33.2 15.2 46.1 15.4-48.2 36.9-86.8 36.9-86.8 6.4-11.4 15.9-17.3 25.2-17.3zm0 135.3c17.3 0 33.3-5.7 46.2-15.3-3.3-23.1-22.7-43.4-46.2-43.4-23.5 0-42.9 20.3-46.2 43.4 12.8 9.6 28.8 15.3 46.2 15.3z"/></svg>