<?xml version="1.0" encoding="UTF-8"?>
<svg id="katman_1" data-name="katman 1" xmlns="http://www.w3.org/2000/svg" xmlns:xlink="http://www.w3.org/1999/xlink" viewBox="0 0 290.57 185.58">
  <defs>
    <style>
      .cls-1 {
        fill: url(#Adsız_degrade_43);
      }

      .cls-2 {
        fill: url(#Adsız_degrade_39);
      }

      .cls-3 {
        fill: url(#Adsız_degrade_38);
      }

      .cls-4 {
        fill: #322f82;
      }

      .cls-5 {
        fill: #3ab1e6;
      }
    </style>
    <linearGradient id="Adsız_degrade_39" data-name="Adsız degrade 39" x1="35.76" y1="77.46" x2="67.9" y2="77.46" gradientUnits="userSpaceOnUse">
      <stop offset="0" stop-color="#961914"/>
      <stop offset=".33" stop-color="#e5231d"/>
    </linearGradient>
    <linearGradient id="Adsız_degrade_38" data-name="Adsız degrade 38" x1="29.98" y1="86.59" x2="73.05" y2="86.59" gradientUnits="userSpaceOnUse">
      <stop offset=".72" stop-color="#e5231d"/>
      <stop offset="1" stop-color="#961914"/>
    </linearGradient>
    <linearGradient id="Adsız_degrade_43" data-name="Adsız degrade 43" x1="21.04" y1="100.23" x2="78.87" y2="100.23" gradientUnits="userSpaceOnUse">
      <stop offset="0" stop-color="#961914"/>
      <stop offset=".25" stop-color="#e5231d"/>
    </linearGradient>
  </defs>
  <g>
    <g>
      <path class="cls-4" d="m106.85,97.32v10.59h-5.36v-9.76c0-2.99-1.37-4.37-3.75-4.37-2.58,0-4.43,1.58-4.43,4.98v9.14h-5.36v-25.5h5.36v8.93c1.44-1.44,3.51-2.2,5.88-2.2,4.36,0,7.66,2.54,7.66,8.18Z"/>
      <path class="cls-4" d="m149.41,97.36v10.55h-5.02v-2.3c-1,1.68-2.92,2.58-5.64,2.58-4.33,0-6.91-2.41-6.91-5.6s2.3-5.53,7.94-5.53h4.26c0-2.3-1.37-3.64-4.26-3.64-1.96,0-3.99.65-5.33,1.72l-1.92-3.75c2.03-1.44,5.02-2.23,7.97-2.23,5.64,0,8.9,2.61,8.9,8.21Zm-5.36,4.71v-1.89h-3.68c-2.51,0-3.3.93-3.3,2.16,0,1.34,1.13,2.23,3.02,2.23,1.79,0,3.33-.82,3.95-2.51Z"/>
      <path class="cls-4" d="m154.25,82.41h5.36v25.5h-5.36v-25.5Z"/>
      <path class="cls-4" d="m177.86,107.02c-1.1.79-2.71,1.17-4.36,1.17-4.36,0-6.91-2.23-6.91-6.63v-7.59h-2.85v-4.12h2.85v-4.5h5.36v4.5h4.61v4.12h-4.61v7.53c0,1.58.86,2.44,2.3,2.44.79,0,1.58-.24,2.16-.69l1.44,3.78Z"/>
      <path class="cls-4" d="m199.78,97.32v10.59h-5.36v-9.76c0-2.99-1.37-4.37-3.75-4.37-2.58,0-4.43,1.58-4.43,4.98v9.14h-5.36v-25.5h5.36v8.93c1.44-1.44,3.51-2.2,5.88-2.2,4.36,0,7.66,2.54,7.66,8.18Z"/>
      <path class="cls-4" d="m115.41,100.65c.51,2.27,2.44,3.65,5.21,3.65,1.93,0,3.32-.58,4.57-1.76l2.81,3.05c-1.69,1.93-4.23,2.94-7.51,2.94-6.29,0-10.39-3.96-10.39-9.37s4.16-9.37,9.71-9.37,9.47,3.59,9.47,9.44c0,.41-.07.98-.1,1.42h-11.36v-3.08s6.49,0,6.49,0c-.37-2.3-2.1-3.79-4.47-3.79s-4.13,1.46-4.5,3.79c-.31,1.33.07,3.08.07,3.08Z"/>
    </g>
    <g>
      <path class="cls-5" d="m207.21,81.53h0c1.66,0,3.02,1.34,3.02,3.01v4.94l.43-.18.43-.18c1.36-.49,2.75-.73,4.17-.73s2.83.24,4.19.73c1.32.49,2.51,1.21,3.56,2.17,1.05.94,1.86,2.04,2.43,3.3.59,1.27.89,2.64.89,4.1s-.29,2.87-.87,4.12c-.58,1.25-1.4,2.35-2.45,3.32-1.07.97-2.26,1.69-3.56,2.17-1.32.52-2.72.78-4.19.78-1.92,0-3.74-.45-5.45-1.36-1.71-.89-3.07-2.13-4.08-3.7-1.01-1.54-1.52-3.27-1.53-5.19v-14.26c0-1.66,1.34-3.01,3-3.01v-.02Zm4.52,20.61c.99.97,2.17,1.45,3.52,1.45s2.55-.48,3.54-1.45c1.01-.97,1.51-2.13,1.51-3.47,0-.88-.23-1.68-.69-2.41-.46-.74-1.09-1.33-1.87-1.78-.77-.44-1.6-.66-2.49-.66s-1.69.22-2.47.66c-.78.44-1.41,1.03-1.87,1.78-.46.73-.69,1.54-.69,2.41,0,1.35.5,2.51,1.51,3.47Z"/>
      <path class="cls-5" d="m232.88,107.69c-1.71-.91-3.07-2.15-4.08-3.72-1.02-1.58-1.53-3.36-1.53-5.32,0-1.47.3-2.84.89-4.12.59-1.27,1.41-2.37,2.43-3.3,1.05-.94,2.23-1.66,3.56-2.16,1.36-.5,2.75-.76,4.17-.76s2.83.25,4.19.76c1.32.48,2.51,1.19,3.56,2.15,1.05.95,1.86,2.06,2.43,3.32.59,1.27.89,2.65.89,4.12s-.29,2.87-.87,4.12c-.58,1.26-1.4,2.37-2.45,3.34-1.07.95-2.26,1.68-3.56,2.17-1.32.52-2.72.78-4.19.78-1.92,0-3.74-.45-5.45-1.36h0Zm1.92-5.57c.99.97,2.17,1.45,3.52,1.45s2.55-.48,3.54-1.45c1.03-.99,1.53-2.17,1.51-3.55,0-.78-.22-1.54-.62-2.22-.47-.8-1.12-1.44-1.95-1.91-.77-.44-1.6-.66-2.49-.66s-1.69.22-2.47.66c-.82.46-1.48,1.1-1.95,1.91-.39.67-.6,1.44-.62,2.21-.02,1.38.48,2.57,1.51,3.56h.02Z"/>
      <path class="cls-5" d="m247.41,108.45l7.09-10.04-6.62-9.24,6.62-.04,3.51,5.36,3.76-5.36,6.51.02-6.98,9.34,7.35,9.91-7.19.04-3.68-5.59-3.98,5.59-6.39.02h0Z"/>
    </g>
  </g>
  <g>
    <path class="cls-2" d="m67.9,73.08s-.02.1-.04.15c-.44.07-.88.14-1.32.2-3.21.46-6.01,1.75-8.32,4.05-1.63,1.63-3.29,3.24-4.93,4.88-1.11,1.12-2.2,2.27-3.27,3.38-.71-.68-1.43-1.34-2.12-2.03-2-1.99-3.97-4.01-5.97-6-.95-.95-2.43-.97-3.41-.05-.88.82-1.01,2.37-.15,3.28,0,0-4.75-2.79-1.44-11.24,1.59-.55,3.31-.68,5.15-.36,2.13.36,3.92,1.37,5.43,2.91.7.72,1.42,1.42,2.11,2.14.25.26.41.25.66-.01.87-.91,1.73-1.83,2.67-2.67,1.49-1.33,3.25-2.14,5.25-2.42,2.79-.39,5.34.25,7.61,1.9.76.55,1.4,1.26,2.09,1.89Z"/>
    <path class="cls-3" d="m70.97,89.04c.2-.66.08-1.38-.36-2.04-.58-.88-1.81-1.28-2.84-.89-.31.12-.6.33-.83.56-2.84,2.83-5.67,5.68-8.51,8.51-2.47,2.45-4.95,4.89-7.43,7.34-.25.24-.49.48-.7.74-.25.31-.45.25-.7,0-1.48-1.5-2.96-3-4.46-4.48-3.61-3.6-7.21-7.21-10.83-10.8-.96-.95-1.91-1.91-2.66-3.01-.36-.53-.67-1.09-.92-1.71-.86-2.15-.99-4.34-.38-6.58.5-1.86,1.46-3.45,2.86-4.73,1.14-1.04,2.38-1.8,3.71-2.25-3.31,8.45,1.44,11.24,1.44,11.24.83.88,1.67,1.74,2.52,2.59,2.31,2.31,4.62,4.6,6.94,6.9.59.59,1.18,1.17,1.75,1.78.31.33.55.15.78-.07.69-.68,1.37-1.36,2.06-2.05,1.85-1.85,3.7-3.7,5.55-5.55,1.29-1.28,2.55-2.6,3.87-3.84,1.47-1.38,3.25-2.12,5.23-2.44,2.09-.33,4.1-.07,5.97.85.05,5.06-1.27,8.38-2.07,9.92Z"/>
    <path class="cls-1" d="m77.31,93.66c-.61.98-1.39,1.89-2.31,2.75-1.64,1.53-3.18,3.16-4.77,4.75-1.66,1.66-3.32,3.31-4.98,4.97-1.53,1.53-3.06,3.04-4.59,4.57-1.72,1.72-3.43,3.44-5.15,5.16-1.74,1.74-3.49,3.48-5.23,5.23-.12.11-.24.23-.36.34-.65-.68-1.24-1.31-1.86-1.91-2.82-2.8-5.65-5.59-8.47-8.4-3.02-2.99-6.02-5.99-9.02-9-2.19-2.18-4.41-4.34-6.55-6.58-2.46-2.59-3.43-5.68-2.81-9.23.36-2.08,1.37-3.81,2.83-5.31.32-.32.63-.65,1.03-1.07.07.5.12.88.16,1.25.33,3.09,1.51,5.81,3.65,8.05,2.29,2.39,4.65,4.71,6.99,7.05,3.18,3.19,6.37,6.37,9.55,9.55,1.5,1.5,2.98,3.02,4.53,4.59.29-.3.51-.54.74-.78,2.25-2.25,4.49-4.5,6.74-6.74,3.6-3.59,7.2-7.18,10.8-10.77.72-.72,1.43-1.45,2.13-2.19,0,0,0,0,0-.01.29-.3.48-.64.59-.99.8-1.54,2.13-4.86,2.07-9.92,3.13,1.55,5.12,4.05,5.68,7.54.43,2.69-.11,5.03-1.41,7.09Z"/>
  </g>
</svg>